<svg width="38" height="37" viewBox="0 0 38 37" fill="none" xmlns="http://www.w3.org/2000/svg">
<path d="M5.125 14.5164C5.125 13.9469 5.41486 13.4127 5.90288 13.0826L17.9279 4.95056C18.5698 4.51648 19.4302 4.51648 20.0721 4.95056L32.0971 13.0826C32.5851 13.4127 32.875 13.9469 32.875 14.5164V29.736C32.875 31.1935 31.6326 32.375 30.1 32.375H7.9C6.36741 32.375 5.125 31.1935 5.125 29.736V14.5164Z" stroke="black" stroke-width="2"/>
<path d="M22.4688 20.2344C22.4688 22.1501 20.9157 23.7031 19 23.7031C17.0843 23.7031 15.5312 22.1501 15.5312 20.2344C15.5312 18.3186 17.0843 16.7656 19 16.7656C20.9157 16.7656 22.4688 18.3186 22.4688 20.2344Z" stroke="black" stroke-width="2"/>
</svg>
