<svg width="130" height="27" viewBox="0 0 130 27" fill="none" xmlns="http://www.w3.org/2000/svg">
<g clip-path="url(#clip0_107_689)">
<path d="M25.759 20.4105C24.6647 21.1738 22.8904 21.1738 21.796 20.4105C20.7018 19.6472 20.7018 18.4096 21.796 17.6463C22.8904 16.883 24.6647 16.883 25.759 17.6463C26.8533 18.4096 26.8533 19.6472 25.759 20.4105Z" fill="#808488"/>
<path d="M14.4008 10.0448C12.7593 11.1897 10.0979 11.1897 8.4564 10.0448C6.81494 8.89977 6.81494 7.04343 8.4564 5.89847C10.0979 4.7535 12.7593 4.7535 14.4008 5.89847C16.0423 7.04343 16.0423 8.89977 14.4008 10.0448Z" fill="#808488"/>
<path d="M20.4302 15.2276C19.0623 16.1817 16.8444 16.1817 15.4765 15.2276C14.1086 14.2735 14.1086 12.7265 15.4765 11.7724C16.8444 10.8183 19.0623 10.8183 20.4302 11.7724C21.7981 12.7265 21.7981 14.2735 20.4302 15.2276Z" fill="#808488"/>
<path d="M29.2265 14.5366C28.4058 15.1091 27.0751 15.1091 26.2543 14.5366C25.4336 13.9641 25.4336 13.036 26.2543 12.4634C27.0751 11.8909 28.4058 11.8909 29.2265 12.4634C30.0473 13.036 30.0473 13.9641 29.2265 14.5366Z" fill="#808488"/>
<path d="M20.4302 4.17085C19.0623 5.12498 16.8444 5.12498 15.4765 4.17085C14.1086 3.21671 14.1086 1.66974 15.4765 0.715606C16.8444 -0.238535 19.0623 -0.238536 20.4302 0.715606C21.7981 1.66974 21.7981 3.21671 20.4302 4.17085Z" fill="#808488"/>
<path d="M25.759 9.35372C24.6647 10.117 22.8904 10.117 21.796 9.35372C20.7018 8.59041 20.7018 7.35281 21.796 6.58953C22.8904 5.82622 24.6647 5.82622 25.759 6.58953C26.8533 7.35281 26.8533 8.59041 25.759 9.35372Z" fill="#808488"/>
<path d="M20.4302 26.2844C19.0623 27.2385 16.8444 27.2385 15.4765 26.2844C14.1086 25.3303 14.1086 23.7833 15.4765 22.8291C16.8444 21.875 19.0623 21.875 20.4302 22.8291C21.7981 23.7833 21.7981 25.3303 20.4302 26.2844Z" fill="#808488"/>
<path d="M7.17552 15.5732C5.53399 16.7181 2.87258 16.7181 1.23112 15.5732C-0.410411 14.4282 -0.410411 12.5718 1.23112 11.4269C2.87258 10.2819 5.53399 10.2819 7.17552 11.4269C8.81698 12.5718 8.81698 14.4282 7.17552 15.5732Z" fill="#808488"/>
<path d="M14.4008 21.1015C12.7593 22.2465 10.0979 22.2465 8.4564 21.1015C6.81494 19.9566 6.81494 18.1002 8.4564 16.9552C10.0979 15.8103 12.7593 15.8103 14.4008 16.9552C16.0423 18.1002 16.0423 19.9566 14.4008 21.1015Z" fill="#808488"/>
</g>
<path d="M40.22 21.2C39.1267 21.2 38.08 21.0467 37.08 20.74C36.08 20.42 35.2867 20.0133 34.7 19.52L35.6 17.5C36.16 17.94 36.8533 18.3067 37.68 18.6C38.5067 18.8933 39.3533 19.04 40.22 19.04C40.9533 19.04 41.5467 18.96 42 18.8C42.4533 18.64 42.7867 18.4267 43 18.16C43.2133 17.88 43.32 17.5667 43.32 17.22C43.32 16.7933 43.1667 16.4533 42.86 16.2C42.5533 15.9333 42.1533 15.7267 41.66 15.58C41.18 15.42 40.64 15.2733 40.04 15.14C39.4533 15.0067 38.86 14.8533 38.26 14.68C37.6733 14.4933 37.1333 14.26 36.64 13.98C36.16 13.6867 35.7667 13.3 35.46 12.82C35.1533 12.34 35 11.7267 35 10.98C35 10.22 35.2 9.52667 35.6 8.9C36.0133 8.26 36.6333 7.75333 37.46 7.38C38.3 6.99333 39.36 6.8 40.64 6.8C41.48 6.8 42.3133 6.90667 43.14 7.12C43.9667 7.33333 44.6867 7.64 45.3 8.04L44.48 10.06C43.8533 9.68667 43.2067 9.41333 42.54 9.24C41.8733 9.05333 41.2333 8.96 40.62 8.96C39.9 8.96 39.3133 9.04667 38.86 9.22C38.42 9.39333 38.0933 9.62 37.88 9.9C37.68 10.18 37.58 10.5 37.58 10.86C37.58 11.2867 37.7267 11.6333 38.02 11.9C38.3267 12.1533 38.72 12.3533 39.2 12.5C39.6933 12.6467 40.24 12.7933 40.84 12.94C41.44 13.0733 42.0333 13.2267 42.62 13.4C43.22 13.5733 43.76 13.8 44.24 14.08C44.7333 14.36 45.1267 14.74 45.42 15.22C45.7267 15.7 45.88 16.3067 45.88 17.04C45.88 17.7867 45.6733 18.48 45.26 19.12C44.86 19.7467 44.24 20.2533 43.4 20.64C42.56 21.0133 41.5 21.2 40.22 21.2ZM50.2581 18.62L50.3181 15.48L55.8981 10.32H58.8981L54.1581 15.08L52.8381 16.18L50.2581 18.62ZM48.2181 21V6.16H50.7181V21H48.2181ZM56.2781 21L52.3781 16.18L53.9581 14.18L59.3181 21H56.2781ZM60.933 21V10.32H63.433V21H60.933ZM62.193 8.56C61.7263 8.56 61.3396 8.41333 61.033 8.12C60.7396 7.82667 60.593 7.47333 60.593 7.06C60.593 6.63333 60.7396 6.28 61.033 6C61.3396 5.70667 61.7263 5.56 62.193 5.56C62.6596 5.56 63.0396 5.7 63.333 5.98C63.6396 6.24667 63.793 6.58667 63.793 7C63.793 7.44 63.6463 7.81333 63.353 8.12C63.0596 8.41333 62.673 8.56 62.193 8.56ZM72.7742 10.2C73.6276 10.2 74.3876 10.3667 75.0542 10.7C75.7342 11.0333 76.2676 11.5467 76.6542 12.24C77.0409 12.92 77.2342 13.8 77.2342 14.88V21H74.7342V15.2C74.7342 14.2533 74.5076 13.5467 74.0542 13.08C73.6142 12.6133 72.9942 12.38 72.1942 12.38C71.6076 12.38 71.0876 12.5 70.6342 12.74C70.1809 12.98 69.8276 13.34 69.5742 13.82C69.3342 14.2867 69.2142 14.88 69.2142 15.6V21H66.7142V10.32H69.0942V13.2L68.6742 12.32C69.0476 11.64 69.5876 11.12 70.2942 10.76C71.0142 10.3867 71.8409 10.2 72.7742 10.2ZM84.9856 21.2C83.8923 21.2 82.8456 21.0467 81.8456 20.74C80.8456 20.42 80.0523 20.0133 79.4656 19.52L80.3656 17.5C80.9256 17.94 81.619 18.3067 82.4456 18.6C83.2723 18.8933 84.119 19.04 84.9856 19.04C85.719 19.04 86.3123 18.96 86.7656 18.8C87.219 18.64 87.5523 18.4267 87.7656 18.16C87.979 17.88 88.0856 17.5667 88.0856 17.22C88.0856 16.7933 87.9323 16.4533 87.6256 16.2C87.319 15.9333 86.919 15.7267 86.4256 15.58C85.9456 15.42 85.4056 15.2733 84.8056 15.14C84.219 15.0067 83.6256 14.8533 83.0256 14.68C82.439 14.4933 81.899 14.26 81.4056 13.98C80.9256 13.6867 80.5323 13.3 80.2256 12.82C79.919 12.34 79.7656 11.7267 79.7656 10.98C79.7656 10.22 79.9656 9.52667 80.3656 8.9C80.779 8.26 81.399 7.75333 82.2256 7.38C83.0656 6.99333 84.1256 6.8 85.4056 6.8C86.2456 6.8 87.079 6.90667 87.9056 7.12C88.7323 7.33333 89.4523 7.64 90.0656 8.04L89.2456 10.06C88.619 9.68667 87.9723 9.41333 87.3056 9.24C86.639 9.05333 85.999 8.96 85.3856 8.96C84.6656 8.96 84.079 9.04667 83.6256 9.22C83.1856 9.39333 82.859 9.62 82.6456 9.9C82.4456 10.18 82.3456 10.5 82.3456 10.86C82.3456 11.2867 82.4923 11.6333 82.7856 11.9C83.0923 12.1533 83.4856 12.3533 83.9656 12.5C84.459 12.6467 85.0056 12.7933 85.6056 12.94C86.2056 13.0733 86.799 13.2267 87.3856 13.4C87.9856 13.5733 88.5256 13.8 89.0056 14.08C89.499 14.36 89.8923 14.74 90.1856 15.22C90.4923 15.7 90.6456 16.3067 90.6456 17.04C90.6456 17.7867 90.439 18.48 90.0256 19.12C89.6256 19.7467 89.0056 20.2533 88.1656 20.64C87.3256 21.0133 86.2656 21.2 84.9856 21.2ZM95.0238 18.62L95.0838 15.48L100.664 10.32H103.664L98.9238 15.08L97.6038 16.18L95.0238 18.62ZM92.9838 21V6.16H95.4838V21H92.9838ZM101.044 21L97.1438 16.18L98.7238 14.18L104.084 21H101.044ZM112.083 21V18.84L111.943 18.38V14.6C111.943 13.8667 111.723 13.3 111.283 12.9C110.843 12.4867 110.177 12.28 109.283 12.28C108.683 12.28 108.09 12.3733 107.503 12.56C106.93 12.7467 106.443 13.0067 106.043 13.34L105.063 11.52C105.637 11.08 106.317 10.7533 107.103 10.54C107.903 10.3133 108.73 10.2 109.583 10.2C111.13 10.2 112.323 10.5733 113.163 11.32C114.017 12.0533 114.443 13.1933 114.443 14.74V21H112.083ZM108.723 21.14C107.923 21.14 107.223 21.0067 106.623 20.74C106.023 20.46 105.557 20.08 105.223 19.6C104.903 19.1067 104.743 18.5533 104.743 17.94C104.743 17.34 104.883 16.8 105.163 16.32C105.457 15.84 105.93 15.46 106.583 15.18C107.237 14.9 108.103 14.76 109.183 14.76H112.283V16.42H109.363C108.51 16.42 107.937 16.56 107.643 16.84C107.35 17.1067 107.203 17.44 107.203 17.84C107.203 18.2933 107.383 18.6533 107.743 18.92C108.103 19.1867 108.603 19.32 109.243 19.32C109.857 19.32 110.403 19.18 110.883 18.9C111.377 18.62 111.73 18.2067 111.943 17.66L112.363 19.16C112.123 19.7867 111.69 20.2733 111.063 20.62C110.45 20.9667 109.67 21.14 108.723 21.14ZM123.712 10.2C124.565 10.2 125.325 10.3667 125.992 10.7C126.672 11.0333 127.205 11.5467 127.592 12.24C127.978 12.92 128.172 13.8 128.172 14.88V21H125.672V15.2C125.672 14.2533 125.445 13.5467 124.992 13.08C124.552 12.6133 123.932 12.38 123.132 12.38C122.545 12.38 122.025 12.5 121.572 12.74C121.118 12.98 120.765 13.34 120.512 13.82C120.272 14.2867 120.152 14.88 120.152 15.6V21H117.652V10.32H120.032V13.2L119.612 12.32C119.985 11.64 120.525 11.12 121.232 10.76C121.952 10.3867 122.778 10.2 123.712 10.2Z" fill="#808488"/>
<defs>
<clipPath id="clip0_107_689">
<rect width="29.8421" height="27" fill="white" transform="matrix(-1 0 0 1 29.8421 0)"/>
</clipPath>
</defs>
</svg>
