<svg width="38" height="37" viewBox="0 0 38 37" fill="none" xmlns="http://www.w3.org/2000/svg">
<path d="M29.7917 16.1875V9.25002C29.7917 7.54714 28.4112 6.16669 26.7083 6.16669H8.20833C6.50546 6.16669 5.125 7.54714 5.125 9.25002V21.3152C5.125 23.0181 6.50546 24.3986 8.20833 24.3986H10.6214V30.8334L17.0562 24.3986H17.4583M25.418 28.3533L29.4398 32.375V28.3533H29.7917C31.4945 28.3533 32.875 26.9728 32.875 25.27V20.0417C32.875 18.3388 31.4945 16.9584 29.7917 16.9584H20.5417C18.8388 16.9584 17.4583 18.3388 17.4583 20.0417V25.27C17.4583 26.9728 18.8388 28.3533 20.5417 28.3533H25.418Z" stroke="black" stroke-width="2" stroke-linecap="round" stroke-linejoin="round"/>
</svg>
