<svg width="30" height="31" viewBox="0 0 30 31" fill="none" xmlns="http://www.w3.org/2000/svg">
<path d="M15 29.375C22.663 29.375 28.875 23.163 28.875 15.5C28.875 7.83705 22.663 1.625 15 1.625M15 29.375C7.33705 29.375 1.125 23.163 1.125 15.5C1.125 7.83705 7.33705 1.625 15 1.625M15 29.375C11.6475 29.375 8.92969 23.1629 8.92969 15.5C8.92969 7.83705 11.6475 1.625 15 1.625M15 29.375C18.3525 29.375 21.0703 23.1629 21.0703 15.5C21.0703 7.83705 18.3525 1.625 15 1.625M3.72656 22.2439C6.2685 20.7883 10.4917 19.8359 15.2719 19.8359C20.2608 19.8359 24.6432 20.8733 27.1406 22.4375M3.72656 8.75611C6.2685 10.2117 10.4917 11.1641 15.2719 11.1641C20.2608 11.1641 24.6432 10.1267 27.1406 8.5625" stroke="black" stroke-width="2"/>
</svg>
